<svg width="400" height="300" viewBox="0 0 400 300" xmlns="http://www.w3.org/2000/svg">
  <defs>
    <linearGradient id="wallGradient4" x1="0%" y1="0%" x2="100%" y2="100%">
      <stop offset="0%" style="stop-color:#fef7ff;stop-opacity:1" />
      <stop offset="100%" style="stop-color:#f3e8ff;stop-opacity:1" />
    </linearGradient>
    <linearGradient id="bedGradient4" x1="0%" y1="0%" x2="100%" y2="100%">
      <stop offset="0%" style="stop-color:#7c3aed;stop-opacity:1" />
      <stop offset="100%" style="stop-color:#8b5cf6;stop-opacity:1" />
    </linearGradient>
    <linearGradient id="floorGradient4" x1="0%" y1="0%" x2="100%" y2="100%">
      <stop offset="0%" style="stop-color:#fbbf24;stop-opacity:1" />
      <stop offset="100%" style="stop-color:#f59e0b;stop-opacity:1" />
    </linearGradient>
  </defs>
  
  <!-- Background/Wall -->
  <rect width="400" height="300" fill="url(#wallGradient4)"/>
  
  <!-- Floor -->
  <rect x="0" y="220" width="400" height="80" fill="url(#floorGradient4)"/>
  
  <!-- Double Bed -->
  <rect x="30" y="140" width="120" height="80" fill="url(#bedGradient4)" rx="5"/>
  <rect x="25" y="135" width="130" height="10" fill="#6d28d9" rx="3"/>
  
  <!-- Pillows -->
  <ellipse cx="70" cy="155" rx="20" ry="10" fill="#ffffff"/>
  <ellipse cx="70" cy="155" rx="15" ry="7" fill="#f8fafc"/>
  <ellipse cx="110" cy="155" rx="20" ry="10" fill="#ffffff"/>
  <ellipse cx="110" cy="155" rx="15" ry="7" fill="#f8fafc"/>
  
  <!-- AC Unit -->
  <rect x="300" y="50" width="80" height="30" fill="#374151" rx="5"/>
  <rect x="305" y="55" width="70" height="20" fill="#6b7280" rx="3"/>
  <circle cx="320" cy="65" r="3" fill="#10b981"/>
  <text x="340" y="70" font-family="Arial" font-size="8" fill="#ffffff">AC</text>
  
  <!-- Kitchen Area -->
  <rect x="200" y="120" width="80" height="100" fill="#e5e7eb" stroke="#9ca3af" stroke-width="2"/>
  <rect x="205" y="125" width="70" height="15" fill="#6b7280"/>
  <text x="240" y="135" font-family="Arial" font-size="8" text-anchor="middle" fill="#ffffff">Kitchen</text>
  
  <!-- Stove -->
  <rect x="210" y="150" width="25" height="20" fill="#374151"/>
  <circle cx="217" cy="157" r="3" fill="#ef4444"/>
  <circle cx="228" cy="157" r="3" fill="#ef4444"/>
  <circle cx="217" cy="167" r="3" fill="#6b7280"/>
  <circle cx="228" cy="167" r="3" fill="#6b7280"/>
  
  <!-- Sink -->
  <rect x="245" y="150" width="25" height="15" fill="#94a3b8" rx="3"/>
  <circle cx="257" cy="157" r="2" fill="#64748b"/>
  
  <!-- Refrigerator -->
  <rect x="210" y="180" width="20" height="35" fill="#f8fafc" stroke="#d1d5db" stroke-width="1"/>
  <rect x="212" y="182" width="16" height="15" fill="#e5e7eb"/>
  <rect x="212" y="200" width="16" height="13" fill="#e5e7eb"/>
  <circle cx="227" cy="190" r="1" fill="#374151"/>
  <circle cx="227" cy="207" r="1" fill="#374151"/>
  
  <!-- Bathroom Door -->
  <rect x="300" y="180" width="30" height="40" fill="#8b4513"/>
  <rect x="305" y="185" width="20" height="30" fill="#a0522d"/>
  <circle cx="322" cy="200" r="1.5" fill="#fbbf24"/>
  <text x="315" y="175" font-family="Arial" font-size="6" text-anchor="middle" fill="#374151">Bath</text>
  
  <!-- Wardrobe -->
  <rect x="160" y="140" width="30" height="80" fill="#8b4513"/>
  <rect x="162" y="142" width="26" height="76" fill="#a0522d"/>
  <line x1="175" y1="142" x2="175" y2="218" stroke="#8b4513" stroke-width="1"/>
  <circle cx="170" cy="180" r="1.5" fill="#fbbf24"/>
  <circle cx="180" cy="180" r="1.5" fill="#fbbf24"/>
  
  <!-- Window -->
  <rect x="350" y="100" width="50" height="60" fill="#bae6fd" stroke="#64748b" stroke-width="3"/>
  <line x1="375" y1="100" x2="375" y2="160" stroke="#64748b" stroke-width="2"/>
  <line x1="350" y1="130" x2="400" y2="130" stroke="#64748b" stroke-width="2"/>
  
  <!-- Chair -->
  <rect x="280" y="160" width="25" height="40" fill="#059669" rx="3"/>
  <rect x="280" y="160" width="25" height="15" fill="#047857" rx="3"/>
  <rect x="275" y="155" width="35" height="5" fill="#065f46"/>
  
  <!-- Door -->
  <rect x="0" y="120" width="8" height="100" fill="#8b4513"/>
  <circle cx="6" cy="170" r="1" fill="#fbbf24"/>
  
  <!-- Title -->
  <text x="200" y="25" font-family="Arial" font-size="16" font-weight="bold" text-anchor="middle" fill="#7c3aed">Family Room (1BHK)</text>
  <text x="200" y="45" font-family="Arial" font-size="12" text-anchor="middle" fill="#64748b">₹2,000+ / month</text>
</svg>